<svg width="16" height="16" viewBox="0 0 16 16" fill="none" xmlns="http://www.w3.org/2000/svg">
<g clip-path="url(#clip0_305_2022)">
<path fill-rule="evenodd" clip-rule="evenodd" d="M8 0C12.4183 0 16 3.58173 16 8C16 12.4183 12.4183 16 8 16C3.58173 16 0 12.4183 0 8C0 3.58173 3.58173 0 8 0Z" fill="white"/>
<path d="M9.04168 15.9328V9.75225H10.7851L11.0163 7.57698H9.04168L9.04461 6.48815C9.04461 5.92079 9.09854 5.61693 9.91396 5.61693H11.004V3.44129H9.26017C7.16548 3.44129 6.42832 4.49647 6.42832 6.27124V7.57714H5.12256V9.75262H6.42832V15.8452C6.93701 15.9465 7.46292 16 8.00138 16C8.34923 16 8.69672 15.9776 9.04168 15.9328Z" fill="#1B6392"/>
</g>
<defs>
<clipPath id="clip0_305_2022">
<rect width="16" height="16" fill="white"/>
</clipPath>
</defs>
</svg>
