<svg width="16" height="16" viewBox="0 0 16 16" fill="none" xmlns="http://www.w3.org/2000/svg">
<g clip-path="url(#clip0_305_2025)">
<path d="M7.02406 0.0531158C4.3652 0.349933 1.71572 2.50108 1.60636 5.57391C1.53762 7.45011 2.07033 8.85765 3.85592 9.25288C4.63077 7.88596 3.60597 7.58446 3.44663 6.59559C2.79207 2.54325 8.12072 -0.220268 10.9092 2.60887C12.8386 4.56786 11.5685 10.5948 8.45659 9.96837C5.47592 9.37004 9.91568 4.57255 7.53646 3.63054C5.60246 2.86507 4.57453 5.97227 5.49154 7.51572C4.95415 10.1699 3.79656 12.671 4.26522 16C5.78524 14.8971 6.29764 12.785 6.71787 10.5823C7.48178 11.0463 7.88951 11.529 8.86432 11.604C12.4589 11.8821 14.4664 8.01562 13.9758 4.44913C13.54 1.28725 10.3843 -0.321811 7.02406 0.0531158Z" fill="white"/>
</g>
<defs>
<clipPath id="clip0_305_2025">
<rect width="16" height="16" fill="white"/>
</clipPath>
</defs>
</svg>
