<svg width="16" height="16" viewBox="0 0 16 16" fill="none" xmlns="http://www.w3.org/2000/svg">
<g clip-path="url(#clip0_305_2027)">
<path d="M8 16C12.4183 16 16 12.4183 16 8C16 3.58172 12.4183 0 8 0C3.58172 0 0 3.58172 0 8C0 12.4183 3.58172 16 8 16Z" fill="white"/>
<path d="M13.3362 8.00005C13.3378 8.10965 13.3242 8.21905 13.2954 8.32485C13.2666 8.43065 13.223 8.53205 13.1658 8.62566C13.1088 8.71926 13.0388 8.80446 12.958 8.87866C12.8772 8.95286 12.7864 9.01526 12.6882 9.06406C12.6904 9.09326 12.6922 9.12266 12.6932 9.15206C12.6956 9.2107 12.6956 9.26942 12.6932 9.32806C12.6922 9.35746 12.6904 9.38686 12.6882 9.41606C12.6882 11.2081 10.6002 12.6641 8.02417 12.6641C5.44814 12.6641 3.36013 11.2081 3.36013 9.41606C3.35793 9.38686 3.35613 9.35746 3.35513 9.32806C3.35272 9.26942 3.35272 9.2107 3.35513 9.15206C3.35613 9.12266 3.35793 9.09326 3.36013 9.06406C3.20628 8.99334 3.06963 8.89004 2.95964 8.7613C2.84965 8.63256 2.76895 8.48146 2.72312 8.31845C2.67737 8.15538 2.66762 7.9843 2.69456 7.81708C2.72149 7.64986 2.78447 7.4905 2.87912 7.35004C2.97369 7.20961 3.09768 7.09143 3.24249 7.0037C3.3873 6.91598 3.54947 6.86082 3.71773 6.84204C3.88601 6.82318 4.05639 6.84113 4.21704 6.89466C4.3777 6.94819 4.5248 7.03601 4.64814 7.15204C4.87711 6.99685 5.117 6.85842 5.36594 6.73784C5.61495 6.61744 5.87235 6.51503 6.13615 6.43183C6.39995 6.34863 6.66955 6.28483 6.94256 6.24063C7.21556 6.19643 7.49156 6.17223 7.76816 6.16803L8.36017 3.392C8.36677 3.3598 8.37977 3.3294 8.39837 3.3022C8.41677 3.2752 8.44057 3.252 8.46797 3.2342C8.49557 3.2164 8.52637 3.2042 8.55877 3.1982C8.59097 3.1924 8.62417 3.193 8.65617 3.2L10.6162 3.592C10.814 3.2522 11.2292 3.1066 11.5958 3.2482C11.9624 3.3898 12.172 3.77681 12.09 4.16121C12.0082 4.54561 11.659 4.81362 11.2666 4.79342C10.874 4.77322 10.5542 4.47081 10.5122 4.08001L8.80017 3.72001L8.28017 6.21603C8.55337 6.22183 8.82597 6.24743 9.09558 6.29243C9.63547 6.38243 10.1595 6.54989 10.6516 6.78964C10.8973 6.90924 11.1342 7.04639 11.3602 7.20004C11.5227 7.044 11.7269 6.93835 11.9482 6.89584C12.1695 6.85318 12.3983 6.87548 12.6072 6.96004C12.8161 7.04456 12.9961 7.18772 13.1254 7.37224C13.2548 7.55678 13.328 7.77482 13.3362 8.00005ZM5.39694 9.10626C5.43734 9.20326 5.49614 9.29146 5.57054 9.36566C5.64475 9.44006 5.73295 9.49886 5.82995 9.53926C5.92704 9.57942 6.03108 9.60008 6.13615 9.60007C6.45975 9.60007 6.75136 9.40506 6.87536 9.10626C6.99916 8.80726 6.93056 8.46325 6.70176 8.23445C6.47295 8.00565 6.12895 7.93705 5.82995 8.06085C5.53114 8.18485 5.33614 8.47645 5.33614 8.80006C5.33614 8.90506 5.35674 9.00906 5.39694 9.10626ZM9.97898 11.0267C10.02 10.9867 10.0434 10.9321 10.0442 10.8749C10.045 10.8175 10.0228 10.7623 9.98278 10.7213C9.94278 10.6803 9.88818 10.6569 9.83098 10.6561C9.77358 10.6553 9.71838 10.6775 9.67218 10.7121C9.55189 10.7984 9.42449 10.8743 9.29138 10.9391C9.15825 11.0039 9.01989 11.0573 8.87777 11.0989C8.73577 11.1403 8.59037 11.1697 8.44337 11.1867C8.29617 11.2037 8.14797 11.2081 8.00017 11.2001C7.85257 11.2067 7.70456 11.2007 7.55796 11.1823C7.41133 11.1641 7.26653 11.1333 7.12516 11.0903C6.98356 11.0475 6.84616 10.9927 6.71396 10.9267C6.58175 10.8607 6.45535 10.7835 6.33615 10.6961C6.29475 10.6621 6.24215 10.6447 6.18855 10.6473C6.13495 10.6499 6.08435 10.6725 6.04635 10.7103C6.00855 10.7483 5.98595 10.7989 5.98335 10.8525C5.98075 10.9061 5.99815 10.9587 6.03215 11.0001C6.17275 11.1061 6.32215 11.1997 6.47875 11.2801C6.63535 11.3605 6.79876 11.4271 6.96676 11.4795C7.13476 11.5319 7.30696 11.5697 7.48156 11.5927C7.65616 11.6155 7.83237 11.6233 8.00817 11.6161C8.18397 11.6233 8.36017 11.6155 8.53477 11.5927C8.88448 11.5467 9.22368 11.4409 9.53758 11.2801C9.69418 11.1997 9.84358 11.1061 9.98418 11.0001L9.97898 11.0267ZM9.83218 9.66407C9.94058 9.66527 10.0482 9.64427 10.1484 9.60267C10.2486 9.56086 10.3392 9.49926 10.4148 9.42146C10.4904 9.34366 10.5492 9.25126 10.588 9.14986C10.6268 9.04858 10.6446 8.94044 10.6402 8.83206C10.6402 8.50845 10.4452 8.21685 10.1464 8.09285C9.84738 7.96905 9.50338 8.03765 9.27458 8.26645C9.04578 8.49525 8.97718 8.83926 9.10098 9.13826C9.22498 9.43706 9.51658 9.63207 9.84018 9.63207L9.83218 9.66407Z" fill="#1B6392"/>
</g>
<defs>
<clipPath id="clip0_305_2027">
<rect width="16" height="16" fill="white"/>
</clipPath>
</defs>
</svg>
