<svg width="16" height="16" viewBox="0 0 16 16" fill="none" xmlns="http://www.w3.org/2000/svg">
<path d="M8.3538 13.5023L5.07647 13.4424C4.01534 13.4215 2.95158 13.4632 1.91126 13.2469C0.328691 12.9237 0.216577 11.339 0.0992606 10.0098C-0.0623891 8.14102 0.000190341 6.23835 0.305244 4.38519C0.477457 3.34538 1.15518 2.72492 2.20327 2.6574C5.74131 2.41236 9.30289 2.4414 12.8331 2.55572C13.2059 2.5662 13.5813 2.62348 13.949 2.68868C15.7637 3.00667 15.8079 4.80246 15.9256 6.31419C16.0429 7.84151 15.9933 9.37667 15.7691 10.8936C15.5892 12.1496 15.245 13.2028 13.7925 13.3045C11.9726 13.4375 10.1944 13.5445 8.3694 13.5104C8.36948 13.5023 8.359 13.5023 8.3538 13.5023ZM6.42704 10.3226C7.79851 9.53539 9.1438 8.76133 10.5074 7.97943C9.1334 7.19225 7.79066 6.41818 6.42704 5.63628V10.3226Z" fill="white"/>
</svg>
